<?xml version="1.0" encoding="utf-8"?>
<!-- Generator: Adobe Illustrator 21.1.0, SVG Export Plug-In . SVG Version: 6.00 Build 0)  -->
<svg version="1.1" id="Layer_1" xmlns="http://www.w3.org/2000/svg" xmlns:xlink="http://www.w3.org/1999/xlink" x="0px" y="0px"
	 viewBox="0 0 119.2 119.2" style="enable-background:new 0 0 119.2 119.2;" xml:space="preserve">
<style type="text/css">
	.st0{fill:#FFFFFF;}
</style>
<g>
	<g>
		<rect x="59.6" class="st0" width="26.8" height="26.8"/>
		<rect x="86.4" y="26.8" class="st0" width="16.4" height="16.4"/>
		<rect x="102.8" y="16.3" class="st0" width="10.5" height="10.5"/>
		<rect x="102.8" y="43.1" class="st0" width="12.1" height="12.1"/>
		<g>
			<path class="st0" d="M103.6,59.6H92.5c0,18.1-14.7,32.8-32.8,32.8S26.8,77.8,26.8,59.6c0-16.7,12.5-30.5,28.6-32.6V15.2
				C48.2,13.5,42.6,7.5,41.5,0c-3.9,1.2-7.6,2.7-11.2,4.6c5.3,7.2,4.8,17.4-1.8,23.9c-6.5,6.5-16.7,7.1-23.9,1.8
				C2.7,33.8,1.2,37.6,0,41.5c8.9,1.3,15.7,8.9,15.7,18.1c0,9.2-6.8,16.8-15.7,18.1c1.2,3.9,2.7,7.6,4.6,11.2
				c7.2-5.3,17.4-4.8,23.9,1.8c6.5,6.5,7.1,16.7,1.8,23.9c3.5,1.9,7.3,3.4,11.2,4.6c1.3-8.9,8.9-15.7,18.1-15.7
				c9.2,0,16.8,6.8,18.1,15.7c3.9-1.2,7.6-2.7,11.2-4.6c-5.3-7.2-4.8-17.4,1.8-23.9c6.5-6.5,16.7-7.1,23.9-1.8
				c1.9-3.5,3.4-7.3,4.6-11.2C110.4,76.5,103.6,68.8,103.6,59.6z"/>
		</g>
	</g>
	<g>
		<path class="st0" d="M80,68.4c0,1.7-0.3,3.3-1,4.8c-0.6,1.5-1.5,2.8-2.6,3.9c-1.1,1.1-2.4,2-3.9,2.6c-1.5,0.6-3.1,1-4.8,1
			c-1.5,0-3-0.3-4.4-0.8c-1.4-0.5-2.7-1.3-3.8-2.3c-1.1,1-2.4,1.8-3.8,2.3c-1.4,0.5-2.9,0.8-4.4,0.8c-1.7,0-3.3-0.3-4.8-1
			c-1.5-0.6-2.8-1.5-3.9-2.6c-1.1-1.1-2-2.4-2.6-3.9c-0.6-1.5-1-3.1-1-4.8V39.1h8.2v29.3c0,0.6,0.1,1.1,0.3,1.6
			c0.2,0.5,0.5,0.9,0.9,1.3c0.4,0.4,0.8,0.7,1.3,0.9c0.5,0.2,1,0.3,1.6,0.3c0.6,0,1.1-0.1,1.6-0.3c0.5-0.2,0.9-0.5,1.3-0.9
			c0.4-0.4,0.7-0.8,0.9-1.3c0.2-0.5,0.3-1,0.3-1.6V39.1h8.2v29.3c0,0.6,0.1,1.1,0.3,1.6c0.2,0.5,0.5,0.9,0.9,1.3
			c0.4,0.4,0.8,0.7,1.3,0.9c0.5,0.2,1,0.3,1.6,0.3c0.6,0,1.1-0.1,1.6-0.3c0.5-0.2,0.9-0.5,1.3-0.9c0.4-0.4,0.7-0.8,0.9-1.3
			c0.2-0.5,0.3-1,0.3-1.6V39.1H80V68.4z"/>
	</g>
</g>
</svg>
